<svg width="32" height="32" version="1.1" xmlns="http://www.w3.org/2000/svg" viewBox="0 0 32 32">
<path d="M16 10.48c0.006 0 0.013 0 0.020 0 1.778 0 3.22-1.442 3.22-3.22s-1.442-3.22-3.22-3.22c-1.778 0-3.22 1.442-3.22 3.22v0c0 0 0 0 0 0 0 1.771 1.43 3.209 3.199 3.22h0.001zM16 6.2c0.596 0 1.080 0.484 1.080 1.080s-0.484 1.080-1.080 1.080-1.080-0.484-1.080-1.080c0-0.007 0-0.014 0-0.021l-0 0.001c0.011-0.588 0.49-1.060 1.080-1.060 0 0 0 0 0 0v0zM24.7 13.38c-0.253-1.157-1.269-2.011-2.484-2.011-0.083 0-0.165 0.004-0.246 0.012l0.010-0.001-5.82 0.54h-0.16l-6-0.58c-0.015-0-0.032-0-0.050-0-1.469 0-2.66 1.191-2.66 2.66 0 0.552 0.168 1.065 0.456 1.49l-0.006-0.009c0.399 0.612 1.042 1.037 1.787 1.139l0.013 0.001 2.46 0.18-1.72 7.8c-0.044 0.182-0.070 0.391-0.070 0.606 0 1.26 0.876 2.315 2.052 2.59l0.018 0.004c0.181 0.046 0.39 0.072 0.604 0.072 1.132 0 2.093-0.735 2.431-1.754l0.005-0.018 0.68-2.42 0.78 2.48c0.36 1.005 1.294 1.716 2.397 1.74l0.003 0c0.114 0.017 0.246 0.027 0.38 0.027s0.266-0.010 0.395-0.028l-0.015 0.002c1.129-0.332 1.94-1.359 1.94-2.576 0-0.2-0.022-0.395-0.063-0.582l0.003 0.018-1.82-7.82 2.48-0.28c0.783-0.096 1.448-0.53 1.854-1.15l0.006-0.010c0.252-0.432 0.401-0.95 0.401-1.504 0-0.175-0.015-0.347-0.044-0.514l0.003 0.018zM16.8 19.38h-1.54l-2 6c0 0.22-0.24 0.4-0.66 0.3-0.2-0.068-0.342-0.255-0.342-0.474 0-0.052 0.008-0.102 0.023-0.149l-0.001 0.004 1.72-7.78c0.039-0.148 0.062-0.319 0.062-0.494 0-1.021-0.765-1.863-1.752-1.985l-0.010-0.001-2.46-0.3c-0.146-0.018-0.273-0.091-0.359-0.199l-0.001-0.001c-0.027-0.068-0.043-0.147-0.043-0.23s0.016-0.162 0.044-0.234l-0.002 0.004c0.008-0.203 0.175-0.365 0.38-0.365 0.021 0 0.042 0.002 0.063 0.005l-0.002-0 6 0.54 6.3-0.54c0.2 0 0.38 0.12 0.44 0.36 0.007 0.039 0.010 0.084 0.010 0.129 0 0.151-0.041 0.293-0.112 0.415l0.002-0.004c-0.064 0.081-0.154 0.138-0.257 0.159l-0.003 0.001-2.54 0.3c-0.545 0.084-1.010 0.378-1.316 0.794l-0.004 0.006c-0.295 0.346-0.474 0.799-0.474 1.293 0 0.13 0.012 0.257 0.036 0.38l-0.002-0.013 1.74 7.8c0.009 0.038 0.015 0.082 0.015 0.127 0 0.228-0.136 0.424-0.331 0.511l-0.004 0.001h-0.18c-0.18-0.009-0.331-0.121-0.399-0.277l-0.001-0.003-2-6zM16 0c-8.837 0-16 7.163-16 16s7.163 16 16 16c8.837 0 16-7.163 16-16v0c0-8.837-7.163-16-16-16v0zM16 29.86c-7.655 0-13.86-6.205-13.86-13.86s6.205-13.86 13.86-13.86c7.655 0 13.86 6.205 13.86 13.86v0c-0.011 7.65-6.21 13.849-13.859 13.86h-0.001z"></path>
</svg>