<svg width="32" height="32" version="1.1" xmlns="http://www.w3.org/2000/svg" viewBox="0 0 32 32">
<path d="M8.52 14.58l-1.46 1.42 6.52 6.34 18.42-18.22-1.48-1.48-16.96 16.84zM28.82 12.76c0.262 0.967 0.421 2.081 0.44 3.229l0 0.011c0 7.5-6.080 13.58-13.58 13.58s-13.58-6.080-13.58-13.58c0-7.5 6.080-13.58 13.58-13.58v0c2.748 0.004 5.302 0.832 7.429 2.251l-0.049-0.031 1.54-1.52c-2.477-1.752-5.559-2.8-8.886-2.8-0.012 0-0.024 0-0.036 0h0.002c-0.017-0-0.038-0-0.058-0-8.693 0-15.74 7.047-15.74 15.74s7.047 15.74 15.74 15.74c8.693 0 15.74-7.047 15.74-15.74 0-1.796-0.301-3.522-0.855-5.131l0.033 0.111-1.72 1.72z"></path>
</svg>