<svg width="32" height="32" version="1.1" xmlns="http://www.w3.org/2000/svg" viewBox="0 0 32 32">
<path d="M30 30.82c-0.372-2.667-1.269-5.066-2.585-7.177l0.045 0.077-1.82 1.14c0.879 1.439 1.569 3.109 1.978 4.887l0.022 0.113h-23.26c0.69-3.493 2.629-6.445 5.323-8.434l0.037-0.026-1.18-1.8c-3.555 2.625-5.989 6.593-6.552 11.141l-0.008 0.079v1.18h28v-1.18zM8 26.36h5.4v2.14h-5.4zM6.88 15.6h2.14v-0.8c1.143 2.8 3.845 4.738 7 4.738s5.857-1.938 6.982-4.688l0.018-0.050v0.8h1.36v3.88l-4.52 2.36h-1.86v-1.12h-2v3.28h4.4l6-3.22v-11.84c0.080-5.34-5.34-8.94-10.4-8.94s-10.48 3.6-10.48 8.94v5.62h1.36v1.040zM16 17.34c-2.963-0.011-5.36-2.416-5.36-5.38 0-2.971 2.409-5.38 5.38-5.38s5.38 2.409 5.38 5.38c0 0.014-0 0.028-0 0.042v-0.002c-0.034 2.956-2.438 5.34-5.4 5.34-0 0-0 0-0 0v0zM16 2.14c4 0 8.34 2.8 8.34 6.8v2.36h-0.86c-0.294-3.9-3.53-6.953-7.48-6.953s-7.186 3.053-7.478 6.928l-0.002 0.025h-0.86v-2.36c0-4 4.34-6.8 8.34-6.8z"></path>
</svg>