<svg width="32" height="32" version="1.1" xmlns="http://www.w3.org/2000/svg" viewBox="0 0 32 32">
<path d="M17.26 0c-8.116 0.047-14.677 6.637-14.677 14.76 0 1.578 0.248 3.099 0.706 4.525l-0.029-0.104 1.74-1.74c-0.183-0.814-0.292-1.752-0.3-2.714l-0-0.006c0-6.959 5.641-12.6 12.6-12.6s12.6 5.641 12.6 12.6c0 6.959-5.641 12.6-12.6 12.6v0c-0.787-0.002-1.553-0.082-2.295-0.233l0.075 0.013v2.16c0.664 0.121 1.431 0.193 2.214 0.2l0.006 0c0.156 0.006 0.339 0.009 0.523 0.009 8.141 0 14.74-6.599 14.74-14.74s-6.599-14.74-14.74-14.74c-0.198 0-0.395 0.004-0.591 0.012l0.028-0.001zM16.48 23.46h2v-1.7c0.842-0.147 1.579-0.524 2.163-1.063l-0.003 0.003c0.668-0.669 1.081-1.593 1.081-2.614 0-0.030-0-0.061-0.001-0.091l0 0.004c0-0.005 0-0.010 0-0.016 0-0.519-0.095-1.015-0.27-1.473l0.009 0.028c-0.194-0.457-0.457-0.849-0.781-1.181l0.001 0.001c-0.352-0.345-0.762-0.633-1.213-0.848l-0.027-0.012c-0.548-0.264-1.211-0.523-1.896-0.732l-0.104-0.028c-0.635-0.196-1.184-0.44-1.698-0.74l0.038 0.020c-0.275-0.155-0.503-0.364-0.676-0.613l-0.004-0.007c-0.116-0.246-0.184-0.534-0.184-0.837 0-0.043 0.001-0.086 0.004-0.128l-0 0.006c-0.001-0.021-0.001-0.045-0.001-0.069 0-0.558 0.266-1.054 0.677-1.368l0.004-0.003c0.469-0.38 1.073-0.61 1.73-0.61s1.261 0.23 1.735 0.614l-0.005-0.004c0.398 0.444 0.641 1.033 0.641 1.679 0 0.113-0.007 0.225-0.022 0.334l0.001-0.013v0.74h2v-0.74c0.005-0.080 0.008-0.173 0.008-0.266 0-1.124-0.412-2.151-1.093-2.94l0.005 0.006c-0.575-0.637-1.357-1.078-2.238-1.217l-0.022-0.003v-1.58h-2v1.66c-0.841 0.14-1.577 0.51-2.163 1.043l0.003-0.003c-0.716 0.667-1.162 1.614-1.162 2.666 0 0.040 0.001 0.080 0.002 0.12l-0-0.006c-0 0.022-0.001 0.049-0.001 0.075 0 0.635 0.148 1.235 0.411 1.768l-0.010-0.023c0.308 0.529 0.71 0.97 1.187 1.311l0.013 0.009c0.638 0.398 1.372 0.744 2.147 0.999l0.073 0.021c0.768 0.236 1.43 0.521 2.054 0.868l-0.054-0.028c0.297 0.167 0.545 0.388 0.735 0.653l0.005 0.007c0.127 0.241 0.202 0.526 0.202 0.829 0 0.032-0.001 0.064-0.002 0.095l0-0.004c0 0.011 0 0.024 0 0.036 0 0.525-0.241 0.993-0.617 1.301l-0.003 0.002c-0.431 0.363-0.992 0.584-1.605 0.584-0.047 0-0.094-0.001-0.141-0.004l0.006 0c-0.044 0.002-0.095 0.004-0.146 0.004-0.706 0-1.354-0.251-1.858-0.668l0.005 0.004c-0.436-0.413-0.707-0.996-0.707-1.642 0-0.063 0.003-0.125 0.008-0.186l-0.001 0.008v-0.84h-2v0.74c-0.003 0.058-0.004 0.126-0.004 0.195 0 1.17 0.467 2.231 1.225 3.006l-0.001-0.001c0.689 0.644 1.587 1.074 2.581 1.178l0.019 0.002v1.68zM3.74 24.42l4.26-4.22-1.38-1.36-6.62 6.58 6.58 6.58 1.42-1.38-4.32-4.26h9.24v-2z"></path>
</svg>