<svg width="32" height="32" version="1.1" xmlns="http://www.w3.org/2000/svg" viewBox="0 0 32 32">
<path d="M13.6 14.44c0.303 0.544 0.714 0.993 1.207 1.331l0.013 0.009c0.65 0.409 1.398 0.762 2.188 1.020l0.072 0.020c0.767 0.241 1.429 0.533 2.051 0.887l-0.051-0.027c0.314 0.167 0.57 0.404 0.755 0.692l0.005 0.008c0.128 0.24 0.204 0.524 0.204 0.827 0 0.040-0.001 0.079-0.004 0.119l0-0.005c0 0.009 0 0.020 0 0.032 0 0.542-0.248 1.027-0.637 1.346l-0.003 0.002c-0.445 0.375-1.024 0.602-1.657 0.602-0.036 0-0.073-0.001-0.109-0.002l0.005 0c-0.066 0.005-0.143 0.008-0.221 0.008-0.731 0-1.402-0.26-1.924-0.692l0.005 0.004c-0.447-0.439-0.725-1.051-0.725-1.727 0-0.054 0.002-0.107 0.005-0.16l-0 0.007v-0.74h-2v0.74c-0.004 0.066-0.006 0.143-0.006 0.221 0 1.181 0.467 2.252 1.227 3.040l-0.001-0.001c0.703 0.649 1.612 1.085 2.619 1.198l0.021 0.002v1.7h2v-1.74c0.856-0.143 1.607-0.52 2.203-1.063l-0.003 0.003c0.716-0.686 1.161-1.649 1.161-2.717 0-0.029-0-0.058-0.001-0.087l0 0.004c0-0.005 0-0.011 0-0.017 0-0.532-0.095-1.042-0.27-1.513l0.010 0.030c-0.188-0.463-0.459-0.856-0.799-1.179l-0.001-0.001c-0.358-0.353-0.774-0.648-1.233-0.868l-0.027-0.012c-0.542-0.264-1.205-0.529-1.887-0.748l-0.113-0.032c-0.642-0.201-1.198-0.452-1.717-0.76l0.037 0.020c-0.277-0.16-0.505-0.376-0.675-0.633l-0.005-0.007c-0.13-0.24-0.207-0.525-0.207-0.827 0-0.054 0.002-0.107 0.007-0.159l-0.001 0.007c-0.001-0.023-0.002-0.049-0.002-0.076 0-0.531 0.241-1.006 0.619-1.321l0.003-0.002c0.427-0.365 0.985-0.587 1.595-0.587 0.065 0 0.13 0.003 0.194 0.008l-0.008-0.001c0.043-0.003 0.093-0.004 0.143-0.004 0.631 0 1.202 0.254 1.617 0.665l-0-0c0.4 0.468 0.643 1.080 0.643 1.749 0 0.046-0.001 0.092-0.003 0.137l0-0.006v0.84h2v-0.84c0.003-0.059 0.004-0.127 0.004-0.196 0-1.13-0.402-2.165-1.070-2.972l0.006 0.008c-0.591-0.641-1.383-1.087-2.277-1.237l-0.023-0.003v-1.74h-2v1.7c-0.853 0.143-1.602 0.513-2.205 1.044l0.005-0.004c-0.717 0.679-1.163 1.638-1.163 2.701 0 0.049 0.001 0.097 0.003 0.145l-0-0.007c-0.001 0.028-0.001 0.061-0.001 0.094 0 0.635 0.148 1.236 0.412 1.769l-0.010-0.023zM13.24 0h-7.9v4.74h-2.68v2.14h2.68v2.1h-2.68v2.14h2.68v9.76h-2.68v2.14h2.68v2.12h-2.68v2.12h2.68v4.74h24v-32zM27.24 29.86h-19.76v-2.6h2v-2.12h-2v-2.12h2v-2.14h-2v-9.76h2v-2.14h-2v-2.1h2v-2.14h-2v-2.6h19.74v27.74z"></path>
</svg>