<svg width="32" height="32" version="1.1" xmlns="http://www.w3.org/2000/svg" viewBox="0 0 32 32">
<path d="M24 13.84l2.14-2.12v-8h-3.84v2.28h1.7zM24 29.86h-20.46v-23.86h1.7v-2.22h-3.84v28.22h24.74v-12.34l-2.14 2.12zM20.28 2.58h-3.020c-0.483-1.495-1.862-2.558-3.49-2.558s-3.007 1.062-3.483 2.532l-0.007 0.026h-3.020v6.6h13.020zM18.16 7.040h-8.76v-2.32h2.86v-1.080c0.090-0.761 0.732-1.346 1.51-1.346s1.42 0.585 1.509 1.339l0.001 0.007v1.080h2.88v2.32zM29.1 11.26l-12.12 12-4.44-4.28-1.5 1.54 6 5.78 13.6-13.52z"></path>
</svg>