<svg width="32" height="32" version="1.1" xmlns="http://www.w3.org/2000/svg" viewBox="0 0 32 32">
<path d="M17.24 0c-8.136 0.011-14.729 6.604-14.74 14.739v0.001c0 0.005 0 0.012 0 0.018 0 1.52 0.227 2.986 0.648 4.368l-0.028-0.106 1.76-1.74c-0.161-0.762-0.255-1.638-0.26-2.536v-0.004c-0-0.024-0-0.053-0-0.081 0-7.025 5.695-12.72 12.72-12.72s12.72 5.695 12.72 12.72c0 7.025-5.695 12.72-12.72 12.72-1.065 0-2.099-0.131-3.087-0.377l0.088 0.018-1.74 1.72c1.371 0.482 2.951 0.76 4.597 0.76 0.015 0 0.030-0 0.046-0h-0.002c0.162 0.006 0.352 0.010 0.543 0.010 8.152 0 14.76-6.608 14.76-14.76s-6.608-14.76-14.76-14.76c-0.191 0-0.381 0.004-0.57 0.011l0.027-0.001zM16.16 4.1v12.74h9.12v-2.14h-7v-10.6zM6.34 18.84l-1.38 1.36 4.22 4.22h-9.18v2h9.24l-4.28 4.22 1.38 1.36 6.58-6.58z"></path>
</svg>