<svg width="32" height="32" version="1.1" xmlns="http://www.w3.org/2000/svg" viewBox="0 0 32 32">
<path d="M14.76 27.36c-6.97 0-12.62-5.65-12.62-12.62s5.65-12.62 12.62-12.62c6.97 0 12.62 5.65 12.62 12.62v0c-0.005 0.902-0.099 1.778-0.275 2.625l0.015-0.085 1.74 1.74c0.406-1.265 0.64-2.72 0.64-4.23 0-0.017-0-0.035-0-0.052v0.003c0-0.006 0-0.013 0-0.020 0-8.163-6.617-14.78-14.78-14.78s-14.78 6.617-14.78 14.78c0 8.163 6.617 14.78 14.78 14.78 1.674 0 3.284-0.278 4.784-0.791l-0.104 0.031-1.74-1.72c-0.87 0.216-1.87 0.34-2.898 0.34-0.001 0-0.001 0-0.002 0h0zM13.66 4.1v12.74h9.14v-2.14h-7v-10.6zM32 26.36v-2h-9.18l4.22-4.22-0.62-0.62-0.76-0.74-6.58 6.64 6.58 6.58 1.38-1.38-4.28-4.26h9.24z"></path>
</svg>