<svg width="32" height="32" version="1.1" xmlns="http://www.w3.org/2000/svg" viewBox="0 0 32 32">
<path d="M18.66 8.32c4 0 5.9 3.5 5.9 6.96v2l2 0.18c0.56 0 3.32 0.4 3.32 3.12-0.034 1.741-1.453 3.14-3.199 3.14-0.007 0-0.014-0-0.022-0h-20.879c-0.050 0.003-0.109 0.004-0.169 0.004-1.922 0-3.48-1.558-3.48-3.48 0-0.086 0.003-0.171 0.009-0.255l-0.001 0.011c0.006-1.693 1.108-3.128 2.633-3.632l0.027-0.008 1.34-0.36 0.2-1.38c0-0.12 0.42-2.74 4.1-2.74 0.36 0 0.78 0 1.2 0l1.46 0.16 0.7-1.28c0.992-1.484 2.66-2.449 4.554-2.449 0.108 0 0.214 0.003 0.32 0.009l-0.015-0.001zM18.66 6.18c-0.048-0.001-0.104-0.002-0.16-0.002-2.742 0-5.144 1.452-6.481 3.629l-0.019 0.033c-0.219-0.018-0.473-0.028-0.73-0.028s-0.511 0.010-0.763 0.030l0.033-0.002c-0.178-0.020-0.384-0.031-0.593-0.031-2.759 0-5.062 1.954-5.601 4.554l-0.006 0.037c-2.475 0.728-4.264 2.945-4.34 5.591l-0 0.009c-0.002 0.055-0.003 0.119-0.003 0.183 0 3.093 2.507 5.6 5.6 5.6 0.064 0 0.128-0.001 0.192-0.003l-0.009 0h20.96s5.26-0.32 5.26-5.22-5.3-5.28-5.3-5.28c0-5.14-3.16-9.1-8-9.1z"></path>
</svg>