<svg width="32" height="32" version="1.1" xmlns="http://www.w3.org/2000/svg" viewBox="0 0 32 32">
<path d="M26.7 13.080c0-5.080-3.16-9.080-8.040-9.080-0.051-0.001-0.112-0.002-0.172-0.002-2.734 0-5.13 1.443-6.469 3.609l-0.019 0.033c-0.219-0.018-0.473-0.028-0.73-0.028s-0.511 0.010-0.763 0.030l0.033-0.002c-0.178-0.020-0.384-0.031-0.593-0.031-2.759 0-5.062 1.954-5.601 4.554l-0.006 0.037c-2.487 0.732-4.282 2.969-4.34 5.633l-0 0.007c-0.002 0.055-0.003 0.119-0.003 0.183 0 3.093 2.507 5.6 5.6 5.6 0.064 0 0.128-0.001 0.192-0.003l-0.009 0h2.52l-2.14-2.14h-0.38c-0.049 0.002-0.106 0.004-0.164 0.004-1.922 0-3.48-1.558-3.48-3.48 0-0.058 0.001-0.115 0.004-0.172l-0 0.008c-0-0.008-0-0.017-0-0.026 0-1.699 1.104-3.14 2.633-3.646l0.027-0.008 1.34-0.38 0.2-1.38s0.42-2.74 4-2.74c0.182-0.013 0.395-0.021 0.61-0.021s0.428 0.008 0.638 0.023l-0.028-0.002 1.54 0.34 0.7-1.26c0.975-1.584 2.699-2.623 4.665-2.623 0.068 0 0.137 0.001 0.204 0.004l-0.010-0c4 0 5.9 3.5 5.9 6.96v2l2 0.14c0.34 0 3.32 0.3 3.32 3.14-0.045 1.733-1.46 3.12-3.199 3.12-0.007 0-0.015-0-0.022-0h-0.799l-2.14 2.14h3.040s5.24-0.36 5.24-5.28-5.32-5.26-5.32-5.26zM8.76 21.060l1.5 1.5 4.7-4.7v10.14h2.14v-10l4.64 4.64 1.5-1.5-7.24-7.32z"></path>
</svg>