<svg width="32" height="32" version="1.1" xmlns="http://www.w3.org/2000/svg" viewBox="0 0 32 32">
<path d="M28.94 15.88l-1.68 1.66c1.479 0.222 2.6 1.484 2.6 3.008 0 0.004 0 0.008-0 0.013v-0.001c-0.045 1.733-1.46 3.12-3.199 3.12-0.007 0-0.015-0-0.022-0h-20.859c-0.050 0.003-0.108 0.004-0.166 0.004-1.922 0-3.48-1.558-3.48-3.48 0-0.072 0.002-0.143 0.006-0.214l-0 0.010c0.006-1.693 1.108-3.128 2.633-3.632l0.027-0.008 1.34-0.36 0.2-1.38s0.42-2.74 4.1-2.74c0.36 0 0.78 0 1.2 0l1.46 0.16 0.7-1.26c0.981-1.495 2.65-2.469 4.546-2.469 0.11 0 0.22 0.003 0.329 0.010l-0.015-0.001c0.042-0.001 0.092-0.002 0.142-0.002 2.323 0 4.303 1.467 5.065 3.524l0.012 0.037 1.62-1.6c-1.289-2.399-3.78-4.003-6.647-4.003-0.068 0-0.136 0.001-0.203 0.003l0.010-0c-0.066-0.002-0.143-0.003-0.221-0.003-2.701 0-5.073 1.409-6.421 3.532l-0.018 0.031c-0.219-0.018-0.473-0.028-0.73-0.028s-0.511 0.010-0.763 0.030l0.033-0.002c-0.178-0.020-0.384-0.031-0.593-0.031-2.759 0-5.062 1.954-5.601 4.554l-0.006 0.037c-2.475 0.728-4.264 2.945-4.34 5.591l-0 0.009c-0.002 0.055-0.003 0.119-0.003 0.183 0 3.093 2.507 5.6 5.6 5.6 0.064 0 0.128-0.001 0.192-0.003l-0.009 0h20.96s5.26-0.32 5.26-5.22c0.002-0.057 0.004-0.124 0.004-0.191 0-2.030-1.255-3.767-3.031-4.477l-0.032-0.011zM20.1 18.64l-5.040-4.9-1.48 1.54 6.54 6.34 11.88-11.8-1.5-1.5-6 6z"></path>
</svg>