<svg width="32" height="32" version="1.1" xmlns="http://www.w3.org/2000/svg" viewBox="0 0 32 32">
<path d="M18.2 0c-3.094 0.019-5.943 1.053-8.235 2.785l0.035-0.025c1.138-0.31 2.446-0.492 3.795-0.5l0.005-0c0.709 0.004 1.402 0.055 2.082 0.149l-0.082-0.009c0.72-0.165 1.546-0.26 2.395-0.26 0.002 0 0.004 0 0.005 0h-0c6.44 0 11.66 5.22 11.66 11.66v0c0 0.019 0 0.042 0 0.064 0 0.849-0.095 1.676-0.274 2.47l0.014-0.075c0.085 0.598 0.136 1.291 0.14 1.995l0 0.005c-0.012 1.334-0.193 2.621-0.524 3.846l0.024-0.106c1.711-2.268 2.74-5.134 2.74-8.24 0-7.599-6.161-13.76-13.76-13.76-0.007 0-0.014 0-0.021 0h0.001zM13.8 6.54c6.44 0 11.66 5.22 11.66 11.66s-5.22 11.66-11.66 11.66c-6.44 0-11.66-5.22-11.66-11.66v0c0-6.44 5.22-11.66 11.66-11.66v0zM13.8 4.4c-7.622 0-13.8 6.178-13.8 13.8s6.178 13.8 13.8 13.8c7.622 0 13.8-6.178 13.8-13.8v0c0-7.622-6.178-13.8-13.8-13.8v0zM18 20c-0.186-0.46-0.45-0.853-0.78-1.18l-0-0c-0.348-0.327-0.751-0.602-1.192-0.808l-0.028-0.012c-0.539-0.261-1.201-0.525-1.882-0.747l-0.118-0.033c-0.664-0.217-1.233-0.467-1.771-0.766l0.051 0.026c-0.277-0.16-0.505-0.376-0.675-0.633l-0.005-0.007c-0.116-0.254-0.183-0.55-0.183-0.862 0-0.041 0.001-0.083 0.004-0.123l-0 0.006c-0.002-0.028-0.003-0.061-0.003-0.094 0-0.528 0.232-1.002 0.601-1.324l0.002-0.002c0.441-0.364 1.012-0.584 1.635-0.584 0.051 0 0.102 0.001 0.152 0.004l-0.007-0c0.044-0.003 0.096-0.005 0.148-0.005 0.633 0 1.204 0.262 1.612 0.684l0.001 0.001c0.401 0.453 0.646 1.051 0.646 1.707 0 0.061-0.002 0.121-0.006 0.181l0-0.008v0.74h2v-0.72c0.003-0.067 0.005-0.146 0.005-0.225 0-1.137-0.41-2.177-1.091-2.982l0.006 0.007c-0.576-0.63-1.346-1.074-2.215-1.236l-0.025-0.004v-1.72h-2v1.72c-0.846 0.116-1.592 0.475-2.184 1.004l0.004-0.004c-0.728 0.681-1.182 1.647-1.182 2.72 0 0.042 0.001 0.084 0.002 0.126l-0-0.006c-0.001 0.028-0.001 0.061-0.001 0.094 0 0.635 0.148 1.236 0.412 1.769l-0.010-0.023c0.306 0.541 0.724 0.984 1.226 1.311l0.014 0.009c0.643 0.405 1.384 0.757 2.167 1.019l0.073 0.021c0.768 0.244 1.43 0.535 2.053 0.888l-0.053-0.028c0.31 0.173 0.565 0.409 0.755 0.692l0.005 0.008c0.128 0.24 0.204 0.524 0.204 0.827 0 0.040-0.001 0.079-0.004 0.119l0-0.005c0 0.012 0 0.027 0 0.041 0 0.54-0.248 1.021-0.637 1.337l-0.003 0.003c-0.447 0.375-1.029 0.603-1.664 0.603-0.041 0-0.081-0.001-0.121-0.003l0.006 0c-0.058 0.004-0.126 0.006-0.195 0.006-0.739 0-1.418-0.259-1.951-0.691l0.006 0.005c-0.447-0.436-0.724-1.045-0.724-1.718 0-0.050 0.002-0.1 0.005-0.149l-0 0.007v-0.76h-2v0.76c-0.003 0.057-0.004 0.123-0.004 0.19 0 1.188 0.475 2.264 1.245 3.051l-0.001-0.001c0.696 0.661 1.609 1.1 2.622 1.199l0.018 0.001v1.7h2v-1.72c0.86-0.14 1.612-0.526 2.202-1.082l-0.002 0.002c0.704-0.675 1.142-1.623 1.142-2.673 0-0.044-0.001-0.089-0.002-0.133l0 0.006c0-0 0-0 0-0 0-0.548-0.11-1.071-0.31-1.546l0.010 0.026z"></path>
</svg>