<svg width="32" height="32" version="1.1" xmlns="http://www.w3.org/2000/svg" viewBox="0 0 32 32">
<path d="M23.56 19.58c-0.316-0.786-0.778-1.453-1.357-1.997l-0.003-0.003c-0.625-0.631-1.351-1.159-2.153-1.559l-0.047-0.021c-0.958-0.48-2.116-0.955-3.312-1.347l-0.188-0.053c-1.246-0.399-2.318-0.874-3.327-1.445l0.087 0.045c-0.578-0.336-1.054-0.787-1.41-1.324l-0.010-0.016c-0.256-0.52-0.406-1.132-0.406-1.779 0-0.078 0.002-0.155 0.006-0.232l-0 0.011c-0.002-0.046-0.003-0.101-0.003-0.156 0-1.108 0.487-2.103 1.259-2.781l0.004-0.004c0.877-0.74 2.019-1.19 3.267-1.19 0.11 0 0.22 0.003 0.328 0.010l-0.015-0.001c0.089-0.006 0.193-0.010 0.297-0.010 1.294 0 2.463 0.532 3.302 1.389l0.001 0.001c0.824 0.924 1.327 2.15 1.327 3.493 0 0.094-0.002 0.188-0.007 0.28l0.001-0.013v0.92h2.68v-0.96c0.006-0.113 0.009-0.245 0.009-0.377 0-1.973-0.714-3.779-1.898-5.174l0.010 0.011c-1.11-1.196-2.626-2.002-4.328-2.197l-0.032-0.003v-3.1h-2.66v3.080c-1.629 0.175-3.074 0.85-4.207 1.866l0.007-0.006c-1.235 1.163-2.005 2.809-2.005 4.635 0 0.086 0.002 0.172 0.005 0.258l-0-0.012c-0.002 0.059-0.003 0.129-0.003 0.199 0 1.078 0.252 2.096 0.701 3l-0.018-0.039c0.484 0.94 1.16 1.718 1.981 2.307l0.019 0.013c1.151 0.735 2.476 1.36 3.88 1.807l0.12 0.033c1.44 0.468 2.677 1.016 3.844 1.674l-0.104-0.054c0.642 0.355 1.167 0.849 1.55 1.443l0.010 0.017c0.282 0.51 0.448 1.117 0.448 1.764 0 0.083-0.003 0.165-0.008 0.247l0.001-0.011c0.001 0.039 0.002 0.084 0.002 0.13 0 1.079-0.462 2.051-1.2 2.727l-0.003 0.002c-0.896 0.762-2.067 1.225-3.346 1.225-0.082 0-0.164-0.002-0.246-0.006l0.012 0c-0.118 0.008-0.257 0.013-0.396 0.013-1.467 0-2.811-0.526-3.853-1.401l0.009 0.008c-0.919-0.873-1.49-2.104-1.49-3.468 0-0.11 0.004-0.219 0.011-0.327l-0.001 0.015v-0.9h-2.7v0.9c-0.006 0.11-0.009 0.239-0.009 0.369 0 2.052 0.82 3.913 2.15 5.273l-0.001-0.001c1.332 1.216 3.073 2.005 4.994 2.139l0.026 0.001v3.080h2.7v-3.12c1.643-0.216 3.088-0.938 4.203-2.003l-0.003 0.003c1.234-1.166 2.002-2.814 2.002-4.641 0-0.056-0.001-0.112-0.002-0.167l0 0.008c-0.025-0.905-0.206-1.761-0.518-2.551l0.018 0.051z"></path>
</svg>