<svg width="32" height="32" version="1.1" xmlns="http://www.w3.org/2000/svg" viewBox="0 0 32 32">
<path d="M1.48 5.18l3.12 24.82 4.3-5.86 4.72 7.86 5.76-3.46-4.72-7.88 7.2-1.020-20.38-14.46zM16.46 27.82l-2.1 1.26-5.26-8.82-3.1 4.14-1.8-14.68 12 8.56-5.080 0.74zM22.88 0c-4.219 0-7.64 3.421-7.64 7.64s3.421 7.64 7.64 7.64c4.219 0 7.64-3.421 7.64-7.64v0c0-4.219-3.421-7.64-7.64-7.64v0zM22.88 13.14c-3.038 0-5.5-2.462-5.5-5.5s2.462-5.5 5.5-5.5c3.038 0 5.5 2.462 5.5 5.5v0c-0.011 3.033-2.467 5.489-5.499 5.5h-0.001zM23.24 3.78h-2.12v5.62h5.62v-2.12h-3.5z"></path>
</svg>