<svg width="32" height="32" version="1.1" xmlns="http://www.w3.org/2000/svg" viewBox="0 0 32 32">
<path d="M2.54,14.41v9.14a9.38,9.38,0,0,0,6.53,8.36l.29.1.3-.1a9.37,9.37,0,0,0,6.53-8.42V14.41Zm8.13,5.76.05-.05-1.4-1.4L4.52,23.5V16.39h9.69v2.72L8.33,25l-.05,0,1.4,1.4,4.53-4.55v1.51a7.28,7.28,0,0,1-1.56,4.1,7.43,7.43,0,0,1-3.29,2.4A7.5,7.5,0,0,1,5,25.76Zm17.45-17A14.8,14.8,0,0,0,18,0C11.64,0,6.62,2.68,6.62,6.09v6.32h2V9.53A15.72,15.72,0,0,0,18,12.17c.23,0,.47,0,.7,0a15.75,15.75,0,0,0,8.75-2.66V22.18c-.21,1.9-4.06,3.94-9.45,3.94h-.11a16.41,16.41,0,0,1-.76,1.95l.87,0c6.15,0,11.05-2.44,11.4-5.7V6.09A4.12,4.12,0,0,0,28.12,3.18ZM18,10.21C12.48,10.21,8.6,8,8.6,6.09S12.48,2,18,2s9.45,2.17,9.45,4.11S23.61,10.21,18,10.21Z"></path>
</svg>