<svg width="32" height="32" version="1.1" xmlns="http://www.w3.org/2000/svg" viewBox="0 0 32 32">
<path d="M22.92 32h9.080v-9.080h-9.080zM25.060 25.060h4.8v4.8h-4.8zM11.46 20.54h9.080v-9.080h-9.080zM13.6 13.6h4.82v4.8h-4.82zM11.46 26.4h-5.7l-0.14-17.32h3.46v-9.080h-9.080v9.080h3.48l0.16 19.44h7.82v3.48h9.080v-9.080h-9.080v3.48zM2.14 2.14h4.8v4.8h-4.8zM13.6 25.060h4.82v4.8h-4.82zM22.92 0v9.080h9.080v-9.080zM29.86 6.94h-4.82v-4.8h4.82zM11.46 9.080h9.080v-9.080h-9.080zM13.6 2.14h4.82v4.8h-4.82z"></path>
</svg>