<svg width="32" height="32" version="1.1" xmlns="http://www.w3.org/2000/svg" viewBox="0 0 32 32">
<path d="M16 29.86h-11.86v-20.48h8v-7.24h11.72v8.2h2.14v-10.34h-16l-8 7.46v24.54h16.32c-0.874-0.633-1.636-1.337-2.305-2.122l-0.015-0.018zM10 2.8v4.46h-4.68zM26 12.54h-10.7v10.1c0.157 2.927 1.55 5.5 3.662 7.226l0.018 0.014c1.041 0.88 2.254 1.597 3.576 2.092l0.084 0.028c1.289-0.471 2.402-1.114 3.38-1.916l-0.020 0.016c2.33-1.713 3.862-4.395 3.999-7.439l0.001-0.021v-10.1zM27.84 22.2v0.38c-0.082 1.772-0.765 3.369-1.848 4.609l0.008-0.009c-0.615 0.71-1.319 1.319-2.101 1.817l-0.039 0.023c-0.351 0.227-0.758 0.447-1.182 0.637l-0.058 0.023c-2.372-0.996-4.17-2.957-4.924-5.379l-0.016-0.061 6.32-5.76-1.44-1.56-5.14 4.68v-6.94h10.44v3.34l-6.76 6.26 1.44 1.56 5.32-4.92v1.24z"></path>
</svg>