<svg width="32" height="32" version="1.1" xmlns="http://www.w3.org/2000/svg" viewBox="0 0 32 32">
<path d="M6.82 25.34c-1.235-1.222-2-2.918-2-4.792 0-0.024 0-0.048 0-0.072l-0 0.004c0.135-2.016 1.205-3.757 2.777-4.806l0.023-0.014c3.645-2.488 6.467-5.94 8.126-9.992l0.054-0.148c0.52 0.82 0.96 1.58 1.36 2.34l1.1-2.28c-1.274-2.14-2.528-3.961-3.888-5.696l0.088 0.116c-0.2 0 1.86 6.58-8 14-2.242 1.465-3.703 3.963-3.703 6.802 0 2.222 0.895 4.235 2.343 5.698l-0.001-0.001-3.1 3.6 1.56 1.36 3.22-3.7c1.347 0.78 2.964 1.24 4.688 1.24 0.018 0 0.037-0 0.055-0h-0.003c0.155 0.010 0.337 0.015 0.52 0.015s0.365-0.006 0.545-0.017l-0.025 0.001 0.92-2.26c-0.598 0.146-1.287 0.233-1.995 0.24l-0.005 0c-0.042 0.001-0.091 0.001-0.14 0.001-1.696 0-3.253-0.597-4.473-1.591l0.013 0.010zM25.56 12.86l3.42-7.22h-8.46l-6.2 13.020h4.5l-5.34 13.34 16.62-19.060zM20 21.42l2-4.84h-4.4l4.22-8.86h3.88l-3.4 7.18h3.3l-5.6 6.52z"></path>
</svg>