<svg width="32" height="32" version="1.1" xmlns="http://www.w3.org/2000/svg" viewBox="0 0 32 32">
<path d="M32 18.26v-4.9l-4.14-1.36-0.56-1.44 2-4-3.52-3.64-4 2-1.44-0.48-1.62-4.44h-5l-1.38 4.4-1.44 0.56-4.42-2.2-3.52 3.5 2.28 4.24-0.74 1.5-4.5 1.52v4.92l4.58 1.44 0.64 1.42-2 4.32 3.52 3.48 4.24-2.2 1.48 0.66 1.42 4.44h5.060l1.38-4.48 1.46-0.64 4.12 1.88 3.48-3.46-2-4 0.44-1.42 4.18-1.62zM26.8 24.86l-1.36 1.34-3.62-1.64-3.24 1.44-1.22 4h-2l-1.36-4-3.26-1.48-3.78 2-1.34-1.32 1.86-3.82-1.34-3.26-4-1.24v-1.86l3.86-1.34 1.62-3.22-2-3.82 1.3-1.28 4 2 3.080-1.36 1.22-3.88h2l1.4 4 3.26 1.1 3.48-1.72 1.34 1.34-1.7 3.58 1.26 3.22 3.64 1.24v1.88l-3.9 1.4-0.98 3.26 1.72 3.44zM16 10.18c-3.206 0.011-5.8 2.613-5.8 5.82 0 3.214 2.606 5.82 5.82 5.82s5.82-2.606 5.82-5.82v0c0 0 0-0 0-0 0-3.214-2.606-5.82-5.82-5.82-0.007 0-0.014 0-0.021 0h0.001zM16 19.66c-2.015-0.023-3.64-1.661-3.64-3.68 0-2.032 1.648-3.68 3.68-3.68s3.68 1.648 3.68 3.68c0 0.007-0 0.014-0 0.021v-0.001c-0.023 2.026-1.67 3.66-3.7 3.66-0.007 0-0.014-0-0.021-0h0.001z"></path>
</svg>