<svg width="32" height="32" version="1.1" xmlns="http://www.w3.org/2000/svg" viewBox="0 0 32 32">
<path d="M28 15.18l0.52 0.18v1.72l-3.62 1.32-0.9 3.14 1.64 3.28-1.24 1.24-3.44-1.56-3.14 1.32-1.16 3.74h-1.86l-1.28-3.68-3.14-1.42-3.62 1.88-1.2-1.2 1.76-3.64-1.32-3.14-3.86-1.18v-1.7l3.7-1.28 1.56-3.1-2-3.64 1.18-1.18 3.72 1.84 3.16-1.24 1.22-3.68h1.76l0.68 2 1.7-1.58-0.82-2.56h-4.9l-1.32 4.2-1.32 0.52-4.22-2-3.42 3.28 2.18 4-0.68 1.34-4.32 1.6v4.74l4.4 1.38 0.58 1.32-2 4.14 3.42 3.36 4-2.1 1.36 0.6 1.46 4.26h4.94l1.34-4.3 1.36-0.58 4 1.8 3.36-3.36-2-4 0.4-1.32 4-1.46v-4.64l-2.62-0.92zM15.32 10.78c-3.076 0.023-5.56 2.521-5.56 5.6 0 3.093 2.507 5.6 5.6 5.6s5.6-2.507 5.6-5.6c0-0.007 0-0.014-0-0.021v0.001c-0.011-3.084-2.514-5.58-5.6-5.58-0.014 0-0.028 0-0.042 0h0.002zM15.32 19.82c-1.894-0.023-3.42-1.563-3.42-3.46 0-1.911 1.549-3.46 3.46-3.46s3.46 1.549 3.46 3.46v0c-0.011 1.913-1.565 3.46-3.48 3.46-0.007 0-0.014-0-0.021-0h0.001zM17.48 7.56l1.52 1.5 4.7-4.7v10.18h2.14v-10.12l4.64 4.64 1.52-1.5-7.26-7.26-6.74 6.76z"></path>
</svg>