<svg width="32" height="32" version="1.1" xmlns="http://www.w3.org/2000/svg" viewBox="0 0 32 32">
<path d="m15.497 4.6.503.472.503-.471c3.605-3.471 9.415-3.468 13.016.01 1.908 1.843 2.584 4.217 2.468 6.492-.115 2.256-1.007 4.457-2.295 6.081C25.793 22.097 16 30.31 16 30.31S6.206 22.097 2.308 17.184C1.02 15.56.128 13.359.013 11.103-.104 8.828.573 6.454 2.48 4.61c3.601-3.478 9.411-3.481 13.016-.01ZM16 27.685s8.65-7.363 12.125-11.743c1.04-1.312 1.772-3.118 1.865-4.94.092-1.803-.438-3.578-1.86-4.951-2.828-2.732-7.414-2.733-10.244-.005l-.01.01L16 7.815l-1.886-1.77c-2.83-2.728-7.416-2.727-10.244.005C2.448 7.423 1.918 9.198 2.01 11a8.898 8.898 0 0 0 1.865 4.94C7.353 20.326 16 27.685 16 27.685Z"></path>
</svg>