<svg width="32" height="32" version="1.1" xmlns="http://www.w3.org/2000/svg" viewBox="0 0 32 32">
<path d="M1.84 0v9.38h28.32v-9.38zM28 2.66v4l-0.24 0.4h-2.76l-1.4-2.42 1.4-2.44h2.8zM21.16 4.56l-1.36-2.42h2.8zM18.76 4.7l-1.36 2.42h-2.8l-1.4-2.42 1.4-2.44h2.8zM10.76 4.56l-1.36-2.42h2.8zM8.36 4.7l-1.36 2.42h-2.8l-0.2-0.4v-4l0.24-0.4h2.76zM10.76 4.82l1.4 2.42h-2.76l1.4-2.42zM21.16 4.82l1.4 2.42h-2.76l1.4-2.42zM1.84 13.4v7.28h28.32v-9.34h-28.32zM4 18v-4l0.24-0.4h2.76l1.4 2.4-1.4 2.42h-2.8zM10.8 16.12l1.4 2.44h-2.8l1.4-2.44zM13.2 16l1.4-2.42h2.8l1.4 2.42-1.4 2.42h-2.8zM21.2 16.12l1.4 2.44h-2.8l1.4-2.44zM23.6 16l1.4-2.42h2.8l0.2 0.42v4l-0.24 0.4h-2.76zM21.2 15.88l-1.4-2.42h2.78zM10.8 15.88l-1.38-2.42h2.78zM1.84 24.72v7.28h28.32v-9.38h-28.32zM4 29.34v-4l0.24-0.4h2.76l1.4 2.44-1.4 2.42h-2.8l-0.2-0.46zM10.84 27.44l1.4 2.42h-2.84l1.4-2.42zM13.24 27.32l1.4-2.44h2.76l1.4 2.44-1.4 2.42h-2.8zM21.24 27.44l1.4 2.42h-2.84l1.4-2.42zM23.64 27.32l1.4-2.44h2.8l0.24 0.4v4l-0.24 0.4h-2.84zM21.24 27.18l-1.4-2.42h2.8l-1.4 2.42zM10.84 27.18l-1.4-2.42h2.76l-1.4 2.42z"></path>
</svg>