<svg width="32" height="32" version="1.1" xmlns="http://www.w3.org/2000/svg" viewBox="0 0 32 32">
<path d="M16 0v0c-8.46 0-10.72 6-10.72 9.36-0.012 0.169-0.019 0.366-0.019 0.564 0 2.377 0.971 4.527 2.538 6.075l0.001 0.001c1.405 1.458 2.271 3.444 2.271 5.632 0 0.377-0.026 0.747-0.075 1.11l0.005-0.042h2.18c0.031-0.297 0.049-0.641 0.049-0.989 0-2.732-1.095-5.207-2.87-7.012l0.001 0.001c-1.25-1.177-2.029-2.844-2.029-4.692 0-0.214 0.010-0.426 0.031-0.634l-0.002 0.026c0-1.22 0.42-7.24 8.6-7.26s8.6 6 8.6 7.26c0.018 0.182 0.029 0.394 0.029 0.608 0 1.848-0.779 3.514-2.026 4.689l-0.003 0.003c-1.774 1.803-2.869 4.279-2.869 7.011 0 0.348 0.018 0.693 0.053 1.032l-0.004-0.043h2.26c-0.045-0.321-0.071-0.691-0.071-1.068 0-2.188 0.866-4.174 2.273-5.634l-0.002 0.002c1.571-1.55 2.544-3.702 2.544-6.081 0-0.225-0.009-0.448-0.026-0.668l0.002 0.029c0-3.28-2.26-9.28-10.72-9.28zM10.14 24.64h11.72v2.36h-11.72zM21.86 30.62v-2h-11.72v2c2 1.84 9.84 1.84 11.7 0z"></path>
</svg>