<svg width="32" height="32" version="1.1" xmlns="http://www.w3.org/2000/svg" viewBox="0 0 32 32">
<path d="M6.44 13.26l25.060-7.26-1.74-6-29.76 8.54 1.6 5.6v17.86h30.4v-18.74h-25.56zM18.72 7.66l-3.26 0.94-2.96-1.56 3.24-0.94 2.98 1.56zM18.54 5.3l3.24-0.92 2.94 1.62-3.2 0.92-2.98-1.62zM12.68 9.4l-3.36 0.96-2.82-1.6 3.22-0.92 2.96 1.56zM29.040 4.7l-1.56 0.44-2.92-1.56 3.84-1.1 0.64 2.22zM3.82 9.54l2.8 1.6-3.52 1-0.64-2.14 1.36-0.38zM30 30h-26.4v-14.72h26.4zM26 21.040v0-2.14h-18.24v2.14h18.24zM26 26.36v-2.14h-18.24v2.18h18.24z"></path>
</svg>