<svg width="32" height="32" version="1.1" xmlns="http://www.w3.org/2000/svg" viewBox="0 0 32 32">
<path d="M26 19.42c-2.15 0.007-4.064 1.008-5.309 2.566l-0.011 0.014-7.76-4c0.211-0.596 0.333-1.284 0.333-2s-0.122-1.404-0.346-2.043l0.013 0.043 7.76-4c1.157 1.545 2.983 2.534 5.040 2.534 3.459 0 6.265-2.797 6.28-6.252v-0.001c0-3.479-2.821-6.3-6.3-6.3s-6.3 2.821-6.3 6.3v0c0.006 0.653 0.115 1.278 0.312 1.862l-0.012-0.042-7.7 3.9c-1.221-1.599-3.129-2.62-5.275-2.62-3.656 0-6.62 2.964-6.62 6.62s2.964 6.62 6.62 6.62c2.146 0 4.053-1.021 5.263-2.604l0.012-0.016 7.8 4c-0.191 0.541-0.307 1.165-0.32 1.814l-0 0.006c0 3.479 2.821 6.3 6.3 6.3s6.3-2.821 6.3-6.3v0c0.002-0.060 0.003-0.13 0.003-0.201 0-3.383-2.71-6.133-6.077-6.199l-0.006-0zM25.72 2.14c2.278 0.011 4.12 1.861 4.12 4.14 0 2.286-1.854 4.14-4.14 4.14s-4.14-1.854-4.14-4.14c0-0.007 0-0.014 0-0.021v0.001c0.011-2.278 1.861-4.12 4.14-4.12 0 0 0 0 0 0v0zM6.64 20.48c-2.466-0.011-4.46-2.013-4.46-4.48 0-2.474 2.006-4.48 4.48-4.48s4.48 2.006 4.48 4.48v0c0 0 0 0 0 0 0 2.474-2.006 4.48-4.48 4.48-0.007 0-0.014-0-0.021-0h0.001zM25.7 29.86c-2.278-0.011-4.12-1.861-4.12-4.14 0-2.286 1.854-4.14 4.14-4.14s4.14 1.854 4.14 4.14c0 0.007-0 0.014-0 0.021v-0.001c-0.011 2.278-1.86 4.12-4.14 4.12-0.007 0-0.014-0-0.021-0h0.001z"></path>
</svg>