<svg width="32" height="32" version="1.1" xmlns="http://www.w3.org/2000/svg" viewBox="0 0 32 32">
<path d="M24.8 13.72c-0.732-0.743-1.184-1.764-1.184-2.89 0-1.518 0.821-2.845 2.044-3.56l0.020-0.011c1.203-0.749 1.993-2.061 2-3.559v-0.001c0.020-2.34-2.92-3.7-5.36-3.7-10.32 0-18.32 7.44-18.32 17.28 0.003 3.681 1.155 7.093 3.117 9.896l-0.037-0.056c2.087 2.967 5.496 4.882 9.353 4.882 0.066 0 0.132-0.001 0.197-0.002l-0.010 0c0.096 0.003 0.209 0.005 0.323 0.005 6.026 0 10.926-4.819 11.057-10.812l0-0.012c-0.058-2.923-1.271-5.552-3.199-7.459l-0.001-0.001zM16.62 29.86c-0.012 0-0.025 0-0.039 0-3.147 0-5.928-1.57-7.601-3.97l-0.020-0.030-0.1-0.14c-1.634-2.363-2.618-5.284-2.64-8.434l-0-0.006c0-8.62 6.92-15.14 16.1-15.14 1.66 0 3.22 0.88 3.22 1.56 0 0.001 0 0.003 0 0.004 0 0.712-0.372 1.337-0.932 1.691l-0.008 0.005c-1.853 1.125-3.073 3.129-3.080 5.419v0.001c0.001 1.668 0.656 3.183 1.722 4.303l-0.002-0.002c1.532 1.522 2.48 3.63 2.48 5.959 0 0.014-0 0.029-0 0.043v-0.002c-0.019 4.834-3.943 8.746-8.78 8.746-0.113 0-0.225-0.002-0.336-0.006l0.016 0zM14.92 8.4c0 0.006 0 0.013 0 0.020 0 0.817-0.663 1.48-1.48 1.48s-1.48-0.663-1.48-1.48c0-0.817 0.663-1.48 1.48-1.48v0c0 0 0 0 0 0 0.81 0 1.469 0.651 1.48 1.459v0.001zM21.42 5.24c0 0.006 0 0.012 0 0.019 0 0.817-0.663 1.48-1.48 1.48s-1.48-0.663-1.48-1.48c0-0.817 0.663-1.48 1.48-1.48 0.021 0 0.042 0 0.063 0.001l-0.003-0c0.785 0.033 1.41 0.672 1.42 1.459v0.001zM11.36 14.88c0-0.817-0.663-1.48-1.48-1.48s-1.48 0.663-1.48 1.48c0 0.817 0.663 1.48 1.48 1.48v0c0.817 0 1.48-0.663 1.48-1.48v0zM18.26 26.6c0 0.006 0 0.013 0 0.020 0 0.817-0.663 1.48-1.48 1.48s-1.48-0.663-1.48-1.48c0-0.817 0.663-1.48 1.48-1.48v0c0 0 0 0 0 0 0.81 0 1.469 0.651 1.48 1.459v0.001zM23.52 21.84c-0.011 0.798-0.661 1.44-1.46 1.44-0.806 0-1.46-0.654-1.46-1.46s0.654-1.46 1.46-1.46v0c0 0 0 0 0 0 0.806 0 1.46 0.654 1.46 1.46 0 0.007-0 0.014-0 0.021v-0.001zM10.7 20.6c-0.006-0-0.013-0-0.020-0-0.817 0-1.48 0.663-1.48 1.48s0.663 1.48 1.48 1.48c0.817 0 1.48-0.663 1.48-1.48 0-0.007-0-0.014-0-0.021v0.001c-0.011-0.802-0.658-1.449-1.459-1.46h-0.001z"></path>
</svg>