<svg width="32" height="32" version="1.1" xmlns="http://www.w3.org/2000/svg" viewBox="0 0 32 32">
<path d="M32 18.96l-0.42-2-1.34 0.26-1.62-9.76 1.8-0.32-0.4-2-3.8 0.7 0.32 2-3.26 0.84c-0.033-0.492-0.185-0.943-0.427-1.332l0.007 0.012-0.22-0.42-0.46-0.1c-2.568-0.731-5.559-1.245-8.638-1.434l-0.122-0.006c-0.8 0.18-4.46 1.7-5.68 2.22l-2.22-0.38 0.26-1.5-3.78-0.7-0.4 2 1.8 0.32-1.64 9.82-1.34-0.26-0.42 2.040 3.46 0.72 0.38-2.24h1.64l0.7 0.56c-0.094 0.24-0.148 0.517-0.148 0.808 0 0.63 0.255 1.2 0.668 1.612v0c0.318 0.309 0.729 0.524 1.187 0.598l0.013 0.002c0.080 0.47 0.294 0.88 0.601 1.201l-0.001-0.001c0.313 0.306 0.717 0.52 1.167 0.598l0.013 0.002c0.080 0.463 0.294 0.867 0.6 1.18l-0-0c0.414 0.42 0.989 0.68 1.624 0.68 0.005 0 0.011-0 0.016-0h-0.001c0.081 0.009 0.175 0.014 0.27 0.014s0.189-0.005 0.281-0.015l-0.011 0.001c0.089 0.191 0.196 0.356 0.322 0.503l-0.002-0.003c0.408 0.42 0.977 0.68 1.608 0.68 0.004 0 0.009 0 0.013-0h-0.001c0.626-0.014 1.189-0.271 1.6-0.68l-0 0 1.1 1.1c0.417 0.42 0.994 0.68 1.633 0.68 0.003 0 0.005 0 0.008 0h-0c0.002 0 0.005 0 0.007 0 0.638 0 1.216-0.26 1.633-0.68l0-0c0.299-0.307 0.507-0.705 0.578-1.148l0.002-0.012c0.461-0.090 0.862-0.302 1.181-0.601l-0.001 0.001c0.309-0.318 0.524-0.729 0.598-1.187l0.002-0.013c0.933-0.1 1.669-0.829 1.779-1.751l0.001-0.009c0.461-0.090 0.862-0.302 1.181-0.601l-0.001 0.001c0.408-0.409 0.66-0.973 0.66-1.596 0-0.237-0.036-0.465-0.104-0.68l0.004 0.016 1.14-0.94h0.84l0.32 2 3.44-0.8zM12 19.12l-0.48 0.5-1.3 1.22c-0.023 0.013-0.051 0.021-0.080 0.021s-0.057-0.008-0.081-0.022l0.001 0h-0.060c-0.038-0.042-0.061-0.098-0.061-0.16s0.023-0.118 0.061-0.16l-0 0 1.64-1.64h0.36v0.3zM9.2 18.34l-0.62 0.64c-0.042 0.038-0.098 0.061-0.16 0.061s-0.118-0.023-0.16-0.061l0 0c-0.043-0.040-0.069-0.097-0.069-0.16s0.026-0.12 0.069-0.16l0-0 0.54-0.66h0.32c0.049 0.041 0.080 0.102 0.080 0.17s-0.031 0.129-0.080 0.17l-0 0zM13.5 20.62c0.039-0.037 0.092-0.059 0.15-0.059s0.111 0.022 0.15 0.059l-0-0c0.038 0.042 0.061 0.098 0.061 0.16s-0.023 0.118-0.061 0.16l0-0-0.94 0.94-0.86 0.68c-0.037 0.049-0.095 0.080-0.16 0.080s-0.123-0.031-0.16-0.079l-0-0c-0.031-0.038-0.050-0.087-0.050-0.14s0.019-0.102 0.051-0.14l-0 0zM15.3 23.020l-0.64 0.62c-0.037 0.049-0.095 0.080-0.16 0.080s-0.123-0.031-0.16-0.079l-0-0c-0.037-0.039-0.059-0.092-0.059-0.15s0.022-0.111 0.059-0.15l0.64-0.64h0.32zM18.98 24.56s0 0.18 0 0.24h-0.42l-1.32-1.3c0.082-0.188 0.133-0.407 0.14-0.637l0-0.003c0-0.002 0-0.005 0-0.007 0-0.638-0.26-1.216-0.68-1.633l-0-0c-0.228-0.227-0.51-0.4-0.826-0.496l-0.014-0.004c0-0.012 0-0.026 0-0.041 0-1.087-0.803-1.987-1.849-2.138l-0.012-0.001c-0.068-0.47-0.276-0.881-0.581-1.201l0.001 0.001c-0.422-0.402-0.996-0.65-1.627-0.65-0.353 0-0.687 0.077-0.988 0.216l0.015-0.006c-0.058-0.131-0.132-0.243-0.221-0.341l0.001 0.001c-0.422-0.399-0.993-0.645-1.621-0.645-0.553 0-1.062 0.19-1.464 0.509l0.005-0.004-1.32-0.92-2-0.14 1-6 2.8 0.28 0.26-0.12c2.38-1 5.12-2 5.48-2.18s4.26 0.66 7.46 1.32c0.005 0.027 0.007 0.058 0.007 0.090s-0.003 0.063-0.008 0.093l0-0.003c-0.029 0.080-0.077 0.148-0.139 0.199l-0.001 0.001c-1.602-0.469-3.465-0.797-5.386-0.916l-0.074-0.004c-2.999 1.078-5.441 2.137-7.807 3.325l0.407-0.185-0.64 0.3v0.72c0.082 1.057 0.673 1.96 1.526 2.472l0.014 0.008c1.42 0.84 3.54 0.6 6.28-0.7 1.548 0.171 2.963 0.524 4.296 1.039l-0.116-0.039c0.66 0.46 3.1 2.7 4.6 4.12v0c0.031 0.038 0.049 0.086 0.049 0.139 0 0.122-0.099 0.22-0.22 0.22-0.032 0-0.063-0.007-0.091-0.020l0.001 0.001s0 0 0 0l-1.060-1.020-1.46 1.5 1.040 1.020c0.019 0.038 0.030 0.083 0.030 0.13s-0.011 0.092-0.030 0.132l0.001-0.002h-0.3l-0.94-0.94-1.48 1.48 0.92 0.94c0.027 0.042 0.044 0.094 0.044 0.15s-0.016 0.108-0.044 0.151l0.001-0.001h-0.28l-0.86-0.86-1.48 1.44 0.86 0.86zM26.7 15.66l-1.64 1.38c-1.24-1.040-3.5-3.16-4.26-3.7-1.579-0.675-3.409-1.15-5.325-1.334l-0.075-0.006h-0.62c-2.98 1.46-4.18 1.14-4.56 0.92-0.085-0.042-0.158-0.096-0.22-0.16l-0-0c2.66-1.24 5.42-2.46 6-2.56 1.94 0.231 3.67 0.575 5.35 1.039l-0.25-0.059h0.26l5.66-1.44 0.96 5.86z"></path>
</svg>