<svg width="32" height="32" version="1.1" xmlns="http://www.w3.org/2000/svg" viewBox="0 0 32 32">
<path d="M14.84 0h2.4v12.78h-2.4zM20.9 4.86v2.26c4.451 1.719 7.569 5.924 7.66 10.869l0 0.011c-0.209 6.596-5.606 11.864-12.234 11.864-0.115 0-0.229-0.002-0.343-0.005l0.017 0c-0.097 0.003-0.211 0.004-0.326 0.004-6.628 0-12.025-5.268-12.234-11.845l-0-0.019c0.128-4.977 3.268-9.189 7.658-10.892l0.082-0.028v-2.26c-5.706 1.796-9.789 6.999-9.88 13.169l-0 0.011c0.21 7.778 6.566 14.004 14.375 14.004 0.114 0 0.228-0.001 0.342-0.004l-0.017 0c0.097 0.002 0.211 0.004 0.325 0.004 7.81 0 14.165-6.225 14.375-13.984l0-0.019c-0.098-6.145-4.14-11.321-9.701-13.112l-0.099-0.028z"></path>
</svg>