<svg width="32" height="32" version="1.1" xmlns="http://www.w3.org/2000/svg" viewBox="0 0 32 32">
<path d="M12.84 12.74s2.16-3.7 3.76-6.48l1.4 2.42-2.92 1.68h8.6l4.32-7.5-3.040 1.74-1.42-2.46c-0.603-1.040-1.696-1.739-2.954-1.78l-0.006-0h-8c-1.163 0.036-2.168 0.681-2.712 1.624l-0.008 0.016c-0.44 0.7-1.76 2.98-3.8 6.6l-0.52 0.88 6.9 4 0.4-0.68zM20 8.8l-2.48-4.14 0.76-1.32c0.447-0.805 1.292-1.34 2.262-1.34 0.006 0 0.012 0 0.018 0h-0.001c0.713 0.015 1.332 0.4 1.675 0.971l0.005 0.009 2 3.4-1.48 2.42zM12.6 2h4.68c-0.14 0.175-0.272 0.371-0.388 0.578l-0.012 0.022c-0.56 1-3.7 6.42-5.020 8.7l-4.14-2.44c0.92-1.62 2.92-5.14 3.5-6 0.273-0.498 0.784-0.836 1.377-0.86l0.003-0zM10 17.66l3 1.74-4.32-7.52h-8.68l2.98 1.72-1.42 2.4c-0.296 0.505-0.472 1.112-0.472 1.76s0.175 1.255 0.481 1.777l-0.009-0.017 4 6.92c0.56 0.927 1.556 1.542 2.697 1.56l0.003 0h8.64v-8h-8.28c0.54-0.92 1.060-1.84 1.4-2.44zM6.92 23.040c0.18-0.28 0.46-0.78 0.78-1.34h7.62v4.78c-1.54 0-5.88 0-7.020 0-0.005 0-0.010 0-0.016 0-0.579 0-1.088-0.3-1.38-0.754l-0.004-0.006c-0.226-0.384-0.359-0.847-0.359-1.34s0.133-0.956 0.366-1.353l-0.007 0.013zM7.76 13.48l1.42 2.52-0.28 0.48c-0.56 0.98-2.7 4.74-3.34 5.8-0.103 0.169-0.21 0.372-0.305 0.582l-0.015 0.038-2.32-4c-0.181-0.284-0.288-0.629-0.288-1s0.107-0.716 0.293-1.008l-0.005 0.008 2-3.4zM31.56 16.44c-0.26-0.52-1.14-2-3.78-6.56l-0.54-0.94-6.9 4 4.14 7.18h-2.82v-3.48l-4.32 7.54 4.32 7.46v-3.4h2.88c0 0 0 0 0 0 1.294 0 2.428-0.691 3.051-1.724l0.009-0.016 4-6.92c0.252-0.442 0.401-0.971 0.401-1.535 0-0.592-0.164-1.146-0.449-1.619l0.008 0.014zM20.6 26.64l-1.42-2.46 1.42-2.48h7.26c0.102 0.009 0.22 0.015 0.34 0.015s0.238-0.005 0.355-0.016l-0.015 0.001-2.32 4c-0.359 0.568-0.984 0.94-1.696 0.94-0.001 0-0.003 0-0.004 0h0zM22.6 13.52l4.14-2.4c1.9 3.24 3.14 5.38 3.52 6 0.128 0.231 0.203 0.507 0.203 0.8s-0.075 0.569-0.207 0.809l0.004-0.009c-0.47 0.795-1.323 1.32-2.298 1.32-0.015 0-0.029-0-0.044-0l0.002 0h-1.56l-3.8-6.6z"></path>
</svg>