<svg width="32" height="32" version="1.1" xmlns="http://www.w3.org/2000/svg" viewBox="0 0 32 32">
<path d="M16 2.52c4.423 0.007 8.345 2.146 10.794 5.444l0.026 0.036h-6.26v2.1h10.1v-10.1h-2.14v6.64c-2.884-3.807-7.408-6.24-12.5-6.24-8.624 0-15.617 6.98-15.64 15.598v0.002h2.14c0-7.445 6.035-13.48 13.48-13.48v0zM29.48 16c-0.023 7.428-6.049 13.44-13.48 13.44-4.416 0-8.336-2.124-10.795-5.405l-0.025-0.035h6.26v-2h-10v10h2.040v-6.64c2.884 3.807 7.408 6.24 12.5 6.24 8.624 0 15.617-6.98 15.64-15.598v-0.002z"></path>
</svg>