<svg width="32" height="32" version="1.1" xmlns="http://www.w3.org/2000/svg" viewBox="0 0 32 32">
<path d="M4.64 0v12.26l2.14-4.48v-5.64h20v14.42c-0.412 6.098-4.415 11.164-9.895 13.127l-0.105 0.033c-2.136-0.867-3.967-2.056-5.529-3.528l0.009 0.008-1.4 1.6c1.91 1.815 4.204 3.246 6.746 4.158l0.134 0.042c6.69-2.185 11.526-8.161 11.997-15.328l0.003-0.052v-16.62zM15.58 12.48l3.5-7.38h-8.64l-6.32 13.28h4.58l-5.44 13.62 16.96-19.46zM9.86 21.2l2-4.94h-4.38l4.3-9.040h4l-3.52 7.32h3.36l-5.76 6.66z"></path>
</svg>