<svg width="32" height="32" version="1.1" xmlns="http://www.w3.org/2000/svg" viewBox="0 0 32 32">
<path d="M31.88 22.32c-0.28-2.472-1.568-4.597-3.437-5.984l-0.023-0.016-0.66-0.32-0.6 0.5c-0.733 0.59-1.675 0.948-2.7 0.948s-1.967-0.357-2.708-0.954l0.008 0.006-0.2-0.16-0.24 0.38c1.080 0.733 1.975 1.654 2.658 2.723l0.022 0.038c0.175 0.017 0.379 0.027 0.585 0.027 1.216 0 2.353-0.337 3.324-0.923l-0.029 0.016c0.769 0.741 1.35 1.671 1.668 2.715l0.012 0.045h-4.7c0.249 0.611 0.457 1.329 0.59 2.074l0.010 0.066h6.54l-0.12-1.18zM24.46 8.72c0.015-0 0.032-0.001 0.049-0.001 1.259 0 2.28 1.021 2.28 2.28s-1.021 2.28-2.28 2.28c-0.895 0-1.67-0.516-2.043-1.266l-0.006-0.013c0.009 0.135 0.015 0.292 0.015 0.45s-0.005 0.315-0.016 0.471l0.001-0.021c-0.008 0.667-0.117 1.306-0.313 1.905l0.013-0.045c0.639 0.383 1.411 0.61 2.235 0.61 2.43 0 4.4-1.97 4.4-4.4s-1.97-4.4-4.4-4.4c-1.517 0-2.854 0.767-3.645 1.935l-0.010 0.015c0.603 0.663 1.074 1.457 1.367 2.334l0.013 0.046c0.044-1.213 1.039-2.18 2.259-2.18 0 0 0.001 0 0.002 0h-0zM8 19.48c0.687-1.123 1.569-2.057 2.61-2.78l0.030-0.020c-0.089-0.111-0.169-0.235-0.235-0.368l-0.005-0.012-0.22 0.16c-0.733 0.59-1.675 0.948-2.7 0.948s-1.967-0.357-2.708-0.954l0.008 0.006-0.54-0.46-0.66 0.44c-1.889 1.406-3.175 3.53-3.456 5.96l-0.004 0.040-0.12 1.060h6.54c0.146-0.813 0.354-1.531 0.627-2.216l-0.027 0.076h-4.64c0.33-1.089 0.911-2.019 1.678-2.758l0.002-0.002c0.94 0.567 2.074 0.902 3.287 0.902 0.188 0 0.373-0.008 0.557-0.024l-0.024 0.002zM9.78 14.76c-0.183-0.554-0.292-1.193-0.3-1.856l-0-0.004c-0.010-0.138-0.015-0.298-0.015-0.46s0.006-0.322 0.017-0.481l-0.001 0.021c-0.368 0.753-1.123 1.265-1.998 1.28l-0.002 0c-1.233-0.034-2.22-1.041-2.22-2.279 0-1.259 1.021-2.28 2.28-2.28 1.245 0 2.257 0.998 2.28 2.237l0 0.002c0.302-0.937 0.775-1.745 1.385-2.426l-0.005 0.006c-0.799-1.196-2.136-1.979-3.657-2l-0.003-0c-2.43 0-4.4 1.97-4.4 4.4s1.97 4.4 4.4 4.4v0c0.057 0.003 0.124 0.005 0.191 0.005 0.756 0 1.464-0.21 2.067-0.575l-0.018 0.010zM20 18.32l-0.64-0.44-0.62 0.5c-0.731 0.594-1.674 0.953-2.7 0.953s-1.969-0.36-2.708-0.96l0.008 0.006-0.62-0.5-0.72 0.44c-1.896 1.4-3.185 3.527-3.457 5.961l-0.004 0.039-0.14 1.18h15.12l-0.14-1.18c-0.254-2.462-1.515-4.587-3.359-5.984l-0.021-0.016zM16.86 23.28h-5.9c0.327-1.081 0.901-2.004 1.658-2.738l0.002-0.002c0.964 0.589 2.132 0.938 3.38 0.938s2.415-0.349 3.409-0.954l-0.029 0.016c0.759 0.736 1.333 1.66 1.648 2.695l0.012 0.045zM16 17.26c0.003 0 0.008 0 0.012 0 1.466 0 2.764-0.721 3.559-1.827l0.009-0.013c0.505-0.707 0.81-1.587 0.82-2.538l0-0.002c0-2.43-1.97-4.4-4.4-4.4s-4.4 1.97-4.4 4.4v0c0.010 0.953 0.315 1.833 0.829 2.554l-0.009-0.014c0.804 1.119 2.102 1.84 3.568 1.84 0.004 0 0.008 0 0.012-0h-0.001zM16 10.6c1.27 0 2.3 1.030 2.3 2.3s-1.030 2.3-2.3 2.3c-1.27 0-2.3-1.030-2.3-2.3 0-0.007 0-0.014 0-0.021v0.001c0.011-1.262 1.037-2.28 2.3-2.28 0 0 0 0 0 0v0z"></path>
</svg>