<svg width="32" height="32" version="1.1" xmlns="http://www.w3.org/2000/svg" viewBox="0 0 32 32">
<path d="M16 6.14c0.012 0 0.026 0.001 0.040 0.001 0.619 0 1.12-0.501 1.12-1.12s-0.501-1.12-1.12-1.12c-0.618 0-1.12 0.501-1.12 1.119v0c-0 0.006-0 0.013-0 0.020 0 0.601 0.481 1.089 1.079 1.1h0.001zM21.42 5.020c0.002 0.024 0.003 0.052 0.003 0.080 0 0.607-0.492 1.1-1.1 1.1s-1.1-0.492-1.1-1.1c0-0.607 0.492-1.1 1.1-1.1 0.006 0 0.012 0 0.018 0h-0.001c0.572 0.009 1.038 0.454 1.080 1.016l0 0.004zM12.76 5.020c0.002 0.024 0.003 0.052 0.003 0.080 0 0.607-0.492 1.1-1.1 1.1s-1.1-0.492-1.1-1.1c0-0.607 0.492-1.1 1.1-1.1 0.006 0 0.012 0 0.018 0h-0.001c0.572 0.009 1.038 0.454 1.080 1.016l0 0.004zM16 12.26l2-2.38h7.8v-9.88h-19.56v9.88h7.76zM8.36 2.14h15.28v5.6h-6.64l-1 1.18-1-1.18h-6.64zM31.88 28.88c-0.295-2.467-1.579-4.588-3.438-5.984l-0.023-0.016-0.66-0.44-0.6 0.5c-0.73 0.597-1.673 0.959-2.7 0.959s-1.97-0.362-2.708-0.965l0.008 0.006-0.2-0.16-0.24 0.38c1.080 0.761 1.975 1.707 2.656 2.799l0.024 0.041c0.194 0.022 0.418 0.034 0.646 0.034 1.197 0 2.314-0.34 3.26-0.929l-0.026 0.015c0.774 0.751 1.356 1.695 1.669 2.755l0.011 0.045h-4.7c0.249 0.611 0.457 1.329 0.59 2.074l0.010 0.066h6.54l-0.12-1.18zM20.82 14.94c0.602 0.676 1.074 1.484 1.366 2.372l0.014 0.048c0.016-1.28 1.057-2.312 2.34-2.312 1.292 0 2.34 1.048 2.34 2.34s-1.048 2.34-2.34 2.34c-0.901 0-1.683-0.509-2.074-1.255l-0.006-0.013c0.010 0.138 0.015 0.298 0.015 0.46s-0.006 0.322-0.017 0.481l0.001-0.021c-0.009 0.667-0.118 1.306-0.313 1.906l0.013-0.046c0.627 0.389 1.387 0.62 2.202 0.62 0.006 0 0.013 0 0.019-0h-0.001c2.321-0.161 4.142-2.083 4.142-4.43s-1.822-4.269-4.128-4.429l-0.014-0.001c-1.522 0.005-2.859 0.794-3.63 1.983l-0.010 0.017zM8 26c0.686-1.13 1.569-2.070 2.611-2.8l0.030-0.020c-0.089-0.111-0.169-0.235-0.235-0.368l-0.005-0.012-0.22 0.16c-0.73 0.597-1.673 0.959-2.7 0.959s-1.97-0.362-2.708-0.965l0.008 0.006-0.6-0.5-0.66 0.44c-1.881 1.413-3.165 3.533-3.456 5.958l-0.004 0.042-0.060 1.1h6.54c0.154-0.764 0.361-1.433 0.627-2.072l-0.027 0.072h-4.64c0.324-1.105 0.906-2.049 1.678-2.798l0.002-0.002c0.892 0.528 1.965 0.841 3.112 0.841 0.25 0 0.496-0.015 0.737-0.044l-0.029 0.003zM7.54 21.86c0.827-0.006 1.599-0.236 2.26-0.631l-0.020 0.011c-0.182-0.554-0.291-1.193-0.3-1.855l-0-0.005c-0.010-0.141-0.015-0.305-0.015-0.47s0.006-0.329 0.017-0.492l-0.001 0.022c-0.368 0.753-1.123 1.265-1.998 1.28l-0.002 0c-1.253-0.023-2.26-1.044-2.26-2.3 0-1.27 1.030-2.3 2.3-2.3 1.256 0 2.277 1.007 2.3 2.258l0 0.002c0.297-0.939 0.77-1.747 1.385-2.425l-0.005 0.005c-0.807-1.166-2.138-1.92-3.645-1.92-2.441 0-4.42 1.979-4.42 4.42 0 2.436 1.97 4.411 4.404 4.42h0.001zM20 24.84l-0.64-0.44-0.62 0.5c-0.73 0.597-1.673 0.959-2.7 0.959s-1.97-0.362-2.708-0.965l0.008 0.006-0.6-0.5-0.74 0.44c-1.889 1.406-3.175 3.53-3.456 5.96l-0.004 0.040-0.1 1.16h15.12l-0.14-1.18c-0.28-2.457-1.551-4.572-3.398-5.964l-0.022-0.016zM16.86 29.86h-5.9c0.324-1.101 0.899-2.044 1.66-2.8l0-0c0.962 0.597 2.13 0.951 3.38 0.951s2.418-0.354 3.408-0.967l-0.028 0.016c0.761 0.756 1.336 1.699 1.648 2.754l0.012 0.046zM16 14.94c-2.441 0-4.42 1.979-4.42 4.42s1.979 4.42 4.42 4.42c2.441 0 4.42-1.979 4.42-4.42v0c-0.011-2.437-1.983-4.409-4.419-4.42h-0.001zM16 21.66c-1.259 0-2.28-1.021-2.28-2.28s1.021-2.28 2.28-2.28c1.259 0 2.28 1.021 2.28 2.28v0c0 1.259-1.021 2.28-2.28 2.28v0z"></path>
</svg>