<svg width="32" height="32" version="1.1" xmlns="http://www.w3.org/2000/svg" viewBox="0 0 32 32">
<path d="M31.64 12.62h-2.22c0.274 1.013 0.435 2.176 0.44 3.377v0.003c0 0.004 0 0.010 0 0.015 0 3.346-1.185 6.414-3.159 8.809l0.019-0.024c-0.93-2.244-2.446-4.088-4.359-5.393l-0.041-0.027-0.66-0.44-0.6 0.5c-1.374 1.102-3.139 1.769-5.060 1.769s-3.686-0.667-5.076-1.782l0.016 0.012-0.6-0.5-0.66 0.42c-1.945 1.342-3.458 3.183-4.37 5.34l-0.030 0.080c-1.952-2.37-3.136-5.437-3.136-8.78 0-7.653 6.203-13.858 13.855-13.86h0c1.21 0.004 2.381 0.164 3.495 0.462l-0.095-0.022v-2.22c-1.020-0.223-2.193-0.354-3.396-0.36l-0.004-0c-8.837 0-16 7.163-16 16s7.163 16 16 16c8.837 0 16-7.163 16-16v0c-0.007-1.201-0.138-2.367-0.38-3.492l0.020 0.112zM6.94 26.46c0.644-1.965 1.788-3.619 3.283-4.866l0.017-0.014c1.614 1.108 3.61 1.769 5.76 1.769s4.146-0.661 5.795-1.792l-0.035 0.023c1.51 1.263 2.653 2.916 3.279 4.805l0.021 0.075c-2.408 2.11-5.584 3.397-9.060 3.397s-6.652-1.287-9.076-3.411l0.016 0.014zM25.66 10.46h2.12v-4.14h4.22v-2.14h-4.2v-4.18h-2.14v4.18h-4.12v2.14h4.12zM9.26 13.38c0 3.722 3.018 6.74 6.74 6.74s6.74-3.018 6.74-6.74c0-3.722-3.018-6.74-6.74-6.74v0c-3.722 0-6.74 3.018-6.74 6.74v0zM20.62 13.38c0 0.006 0 0.013 0 0.020 0 2.552-2.068 4.62-4.62 4.62s-4.62-2.068-4.62-4.62c0-2.552 2.068-4.62 4.62-4.62v0c0 0 0 0 0 0 2.545 0 4.609 2.057 4.62 4.599v0.001z"></path>
</svg>