<svg width="32" height="32" version="1.1" xmlns="http://www.w3.org/2000/svg" viewBox="0 0 32 32">
<path d="M12 15.020c3.666-0.045 6.62-3.027 6.62-6.7 0-3.7-3-6.7-6.7-6.7s-6.7 2.999-6.7 6.699v0c0.023 3.705 3.032 6.7 6.74 6.7 0.014 0 0.028-0 0.042-0h-0.002zM12 3.74c2.521 0.011 4.56 2.058 4.56 4.58 0 2.529-2.051 4.58-4.58 4.58s-4.58-2.050-4.58-4.58v0c0 0 0-0 0-0 0-2.529 2.051-4.58 4.58-4.58 0.007 0 0.014 0 0.021 0h-0.001zM6.2 16.5c1.61 1.1 3.598 1.756 5.74 1.756s4.13-0.656 5.775-1.779l-0.035 0.023c1.721 1.475 2.98 3.442 3.563 5.682l0.017 0.078 1.7-1.68c-0.882-2.609-2.532-4.764-4.679-6.253l-0.041-0.027-0.66-0.44-0.6 0.5c-1.357 1.093-3.101 1.755-5 1.755s-3.643-0.662-5.015-1.767l0.015 0.012-0.6-0.5-0.66 0.42c-3.012 2.229-5.083 5.583-5.592 9.429l-0.008 0.071-0.12 1.16h10.54l2-2.12h-10.080c0.557-2.541 1.887-4.71 3.726-6.308l0.014-0.012zM30.5 16.2l-11.28 11.22-4-4-1.48 1.52 5.6 5.44 12.66-12.68z"></path>
</svg>