<svg width="32" height="32" version="1.1" xmlns="http://www.w3.org/2000/svg" viewBox="0 0 32 32">
<path d="M15.4 18.76l-0.66-0.42-0.6 0.5c-1.105 0.889-2.525 1.426-4.070 1.426s-2.965-0.538-4.083-1.436l0.013 0.010-0.6-0.5-0.66 0.42c-2.523 1.88-4.25 4.706-4.654 7.943l-0.006 0.057-0.080 1.24h20.18l-0.12-1.2c-0.399-3.31-2.129-6.152-4.629-8.018l-0.031-0.022zM2.5 25.78c0.46-1.915 1.47-3.548 2.85-4.772l0.010-0.008c1.333 0.884 2.97 1.41 4.73 1.41s3.397-0.526 4.762-1.43l-0.032 0.020c1.39 1.232 2.4 2.865 2.847 4.717l0.013 0.063zM31.88 24c-0.41-3.294-2.137-6.12-4.629-7.978l-0.031-0.022-0.66-0.42-0.6 0.5c-1.101 0.879-2.514 1.41-4.050 1.41s-2.949-0.531-4.063-1.421l0.013 0.010-0.58-0.48c-0.222 0.492-0.462 0.912-0.737 1.306l0.017-0.026c0.98 0.665 1.817 1.446 2.522 2.337l0.018 0.023c0.845 0.306 1.821 0.483 2.838 0.483 1.75 0 3.377-0.524 4.734-1.423l-0.032 0.020c1.39 1.232 2.4 2.865 2.847 4.717l0.013 0.063h-8.18c0.246 0.593 0.48 1.314 0.659 2.056l0.021 0.104h10l-0.12-1.2zM17.84 13.86c1.043 1.049 2.488 1.698 4.084 1.698 3.181 0 5.76-2.579 5.76-5.76s-2.579-5.76-5.76-5.76c-2.486 0-4.604 1.575-5.411 3.782l-0.013 0.040c0.937 1.278 1.5 2.883 1.5 4.618 0 0.001 0 0.001 0 0.002v-0c-0.005 0.491-0.056 0.968-0.148 1.429l0.008-0.049zM21.84 6.22c0.018-0 0.039-0 0.060-0 1.988 0 3.6 1.612 3.6 3.6s-1.612 3.6-3.6 3.6c-1.988 0-3.6-1.612-3.6-3.6 0-0.007 0-0.014 0-0.021v0.001c0.011-1.98 1.618-3.581 3.6-3.581 0.035 0 0.070 0 0.105 0.002l-0.005-0zM10.1 18.22c1.918-0.004 3.613-0.951 4.648-2.403l0.012-0.017c0.675-0.918 1.080-2.071 1.080-3.319 0-0 0-0.001 0-0.001v0c-0.184-3.032-2.688-5.421-5.75-5.421s-5.566 2.389-5.749 5.405l-0.001 0.016c0 0 0 0.001 0 0.001 0 1.248 0.405 2.401 1.091 3.335l-0.011-0.016c1.049 1.472 2.75 2.42 4.672 2.42 0.003 0 0.006 0 0.008 0h-0zM10.1 8.88c1.98 0.011 3.58 1.619 3.58 3.6 0 1.988-1.612 3.6-3.6 3.6s-3.6-1.612-3.6-3.6v0c0.011-1.991 1.628-3.6 3.62-3.6 0 0 0 0 0 0v0z"></path>
</svg>