<svg width="32" height="32" version="1.1" xmlns="http://www.w3.org/2000/svg" viewBox="0 0 32 32">
<path d="M20 24c4.916-1.715 8.38-6.311 8.38-11.716 0-6.837-5.543-12.38-12.38-12.38s-12.38 5.543-12.38 12.38c0 5.405 3.464 10.001 8.293 11.69l0.087 0.026v5.78h-6.24v2.22h20.48v-2.14h-6.24v-5.86zM17.88 29.86h-3.76v-5.26c0.559 0.083 1.211 0.133 1.872 0.14l0.008 0c0.669-0.007 1.321-0.057 1.958-0.149l-0.078 0.009zM16 22.62c-5.655 0-10.24-4.585-10.24-10.24s4.585-10.24 10.24-10.24c5.655 0 10.24 4.585 10.24 10.24v0c-0.011 5.651-4.589 10.229-10.239 10.24h-0.001zM24 11.3h-6.94v-6.92h-1.060c-4.418 0-8 3.582-8 8s3.582 8 8 8c4.418 0 8-3.582 8-8v0-1.080zM16 18.24c-0.030 0.001-0.065 0.001-0.1 0.001-3.236 0-5.86-2.624-5.86-5.86 0-2.897 2.103-5.304 4.865-5.776l0.035-0.005v6.84h6.82c-0.519 2.748-2.9 4.798-5.76 4.8h-0z"></path>
</svg>