<svg width="32" height="32" version="1.1" xmlns="http://www.w3.org/2000/svg" viewBox="0 0 32 32">
<path d="M0 4.94h14.3v2.14h-14.3zM0 10h14.3v2.18h-14.3zM0 15.12h14.3v2.14h-14.3zM27.080 0.62l-1.48-0.62v5.12c0.006 0.053 0.010 0.113 0.010 0.175 0 0.851-0.689 1.54-1.54 1.54s-1.54-0.689-1.54-1.54c0-0.062 0.004-0.123 0.011-0.182l-0.001 0.007v-5.12l-1.48 0.62c-2.872 1.257-4.842 4.073-4.842 7.35 0 3.019 1.672 5.647 4.14 7.009l0.041 0.021v13.32c-0.006 0.081-0.010 0.176-0.010 0.271 0 2.032 1.648 3.68 3.68 3.68s3.68-1.648 3.68-3.68c0-0.095-0.004-0.19-0.011-0.284l0.001 0.012v-13.32c2.51-1.383 4.182-4.011 4.182-7.030 0-3.277-1.97-6.093-4.79-7.33l-0.051-0.020zM26.28 13.32l-0.68 0.28v14.72c0.006 0.053 0.010 0.113 0.010 0.175 0 0.851-0.689 1.54-1.54 1.54s-1.54-0.689-1.54-1.54c0-0.062 0.004-0.123 0.011-0.182l-0.001 0.007v-14.72l-0.66-0.28c-2.126-0.892-3.592-2.956-3.592-5.363 0-1.798 0.818-3.405 2.103-4.469l0.010-0.008v1.64c-0.006 0.081-0.010 0.176-0.010 0.271 0 2.032 1.648 3.68 3.68 3.68s3.68-1.648 3.68-3.68c0-0.095-0.004-0.19-0.011-0.284l0.001 0.012v-1.64c1.294 1.072 2.112 2.679 2.112 4.477 0 2.407-1.466 4.471-3.554 5.349l-0.038 0.014z"></path>
</svg>