<svg width="32" height="32" version="1.1" xmlns="http://www.w3.org/2000/svg" viewBox="0 0 32 32">
<path d="M24.76 18.66c0.302-0.879 0.476-1.893 0.476-2.947 0-5.169-4.191-9.36-9.36-9.36-1.305 0-2.548 0.267-3.677 0.75l0.061-0.023-1.48 0.62 4.14 4.12c0.403 0.367 0.655 0.894 0.655 1.48s-0.252 1.113-0.653 1.479l-0.002 0.001c-0.383 0.352-0.896 0.568-1.46 0.568s-1.077-0.216-1.462-0.57l0.002 0.001-4.16-4.14-0.62 1.48c-0.459 1.068-0.727 2.311-0.727 3.616 0 5.169 4.191 9.36 9.36 9.36 1.054 0 2.067-0.174 3.013-0.495l-0.066 0.019 2 2 1.5-1.52-2.98-2.96-0.66 0.26c-0.849 0.38-1.841 0.601-2.884 0.601-3.988 0-7.22-3.233-7.22-7.22 0-0.431 0.038-0.854 0.11-1.264l-0.006 0.043 1.74 1.72c0.774 0.754 1.833 1.219 3 1.219s2.226-0.465 3.001-1.22l-0.001 0.001c0.783-0.761 1.269-1.824 1.269-3s-0.486-2.239-1.268-2.999l-0.001-0.001-1.72-1.74c0.367-0.066 0.79-0.104 1.221-0.104 3.987 0 7.22 3.232 7.22 7.22 0 1.043-0.221 2.035-0.619 2.93l0.018-0.046-0.26 0.68 2.92 2.78 1.52-1.5-2-2zM16 0c-8.837 0-16 7.163-16 16s7.163 16 16 16c8.837 0 16-7.163 16-16v0c0-8.837-7.163-16-16-16v0zM16 29.86c-7.655 0-13.86-6.205-13.86-13.86s6.205-13.86 13.86-13.86c7.655 0 13.86 6.205 13.86 13.86v0c-0.011 7.65-6.21 13.849-13.859 13.86h-0.001z"></path>
</svg>